<?xml version="1.0" encoding="UTF-8"?>
<svg width="220px" height="220px" viewBox="0 0 220 220" version="1.1" xmlns="http://www.w3.org/2000/svg" xmlns:xlink="http://www.w3.org/1999/xlink">
    <!-- Generator: Sketch 45.1 (43504) - http://www.bohemiancoding.com/sketch -->
    <title>avatar</title>
    <desc>Created with Sketch.</desc>
    <defs>
        <circle id="path-1" cx="110" cy="110" r="110"></circle>
    </defs>
    <g id="Welcome" stroke="none" stroke-width="1" fill="none" fill-rule="evenodd">
        <g id="TTL---Style-Guide" transform="translate(-115.000000, -259.000000)">
            <g id="Avatars" transform="translate(112.000000, 165.000000)">
                <g id="avatar" transform="translate(3.000000, 94.000000)">
                    <mask id="mask-2" fill="white">
                        <use xlink:href="#path-1"></use>
                    </mask>
                    <use id="Oval" fill="#E7E7E7" xlink:href="#path-1"></use>
                    <path d="M193.972167,220.000001 L26.0277017,220.000001 L26.0277017,199.142101 C26.0277017,199.142101 23.0089718,198.102507 79.9965916,172.651574 C79.9965916,172.651574 79.9965916,162.268777 82.0703409,161.742402 C82.0703409,161.742402 86.2178396,163.815054 86.7361089,154.985103 C86.7361089,154.985103 87.2545295,143.681277 83.1070476,133.291742 C83.1070476,133.291742 81.092433,135.699925 78.8479992,133.291742 C76.5971815,130.890127 68.6040739,110.835348 78.9661226,106.157775 C78.9661226,106.157775 72.1938459,77.6021763 91.1196646,64.8698121 C91.4805884,64.3171274 99,59.000001 110,58.000001 C110,58.000001 119.148208,57.9809613 126.169886,63.2644124 C148.422708,74.9893381 141.033716,106.164344 141.033716,106.164344 C151.395743,110.842423 143.396083,130.898044 141.151839,133.298311 C138.901022,135.706495 136.892791,133.298311 136.892791,133.298311 C132.745292,143.687677 133.26373,154.991672 133.26373,154.991672 C133.78215,163.821623 137.922946,161.748972 137.922946,161.748972 C139.990143,162.26876 139.990143,172.658143 139.990143,172.658143 C196.984651,198.100975 193.972473,199.141933 193.972473,199.141933 L193.972167,220.000001 Z" id="Shape" fill="#ACACAC" fill-rule="nonzero" mask="url(#mask-2)"></path>
                </g>
            </g>
        </g>
    </g>
</svg>
